<svg id="Layer_1" data-name="Layer 1" xmlns="http://www.w3.org/2000/svg" viewBox="0 0 1601.32 427.08"><defs><style>.cls-1,.cls-2{fill:#fff;}.cls-2{font-size:291.59px;font-family:MontserratAlternates-Black, Montserrat Alternates;font-weight:800;}</style></defs><path class="cls-1" d="M605.4,961.48h-125c.39,3.17.66,6.41.81,9.74h92.21v18.33H480.66c-.36,3.34-.88,6.59-1.52,9.74h61.3v18.32h-67c-12.45,28.74-38.35,45.87-69.05,47.18-44.72,1.91-82.16-30.48-84.55-86.52s32.14-91.5,76.86-93.41c36.58-1.56,68.27,19.82,79.92,58.3H603.32c-14.83-91.51-94-155.63-198.84-156.69-117.31-1.18-204,77.2-205.13,186.27-.89,89,56,159.06,140.71,182q28.82,29.38,57.62,58.76l63.8-57.54c85.12-21.27,143.45-90.15,144.35-179.16Q605.91,969.06,605.4,961.48Z" transform="translate(-199.34 -786.46)"/><text class="cls-2" transform="translate(666.78 298.1)">Quick</text></svg>