<svg id="Layer_1" data-name="Layer 1" xmlns="http://www.w3.org/2000/svg" viewBox="0 0 724.87 761.57"><defs><style>.cls-1{fill:#fff;}</style></defs><path class="cls-1" d="M1361.66,931.32H1138.78q1,8.45,1.44,17.37h164.43v32.67H1139.22c-.65,6-1.57,11.75-2.72,17.37h109.33v32.67H1126.28c-22.19,51.25-68.37,81.79-123.12,84.13-79.75,3.41-146.51-54.35-150.78-154.27S909.7,798.09,989.45,794.68c65.22-2.78,121.74,35.34,142.51,104h226c-26.44-163.17-167.56-277.52-354.56-279.4-209.19-2.11-363.84,137.65-365.8,332.16C636,1110.13,737.5,1235,888.49,1276l102.76,104.78L1105,1278.18c151.79-37.92,255.8-160.75,257.4-319.48Q1362.55,944.83,1361.66,931.32Z" transform="translate(-637.57 -619.22)"/></svg>