<svg id="Layer_1" data-name="Layer 1" xmlns="http://www.w3.org/2000/svg" viewBox="0 0 1655.96 427.08"><defs><style>.cls-1{font-size:291.59px;font-family:MontserratAlternates-Black, Montserrat Alternates;font-weight:800;}.cls-1,.cls-2{fill:#fff;}</style></defs><text class="cls-1" transform="translate(721.43 298.1)">Quick</text><path class="cls-2" d="M578.08,961.48h-125q.59,4.74.81,9.74h92.21v18.33h-.22v21.28H513.12v.09H445.61v7.55h68.08V1058H406.62a81.27,81.27,0,0,1-29.58,6.79c-44.73,1.91-82.16-30.48-84.56-86.52s32.15-91.5,76.87-93.41c29-1.24,55,12,70.3,36.78H571.18c-22.91-79.89-97.59-134.19-194-135.17-117.31-1.18-204,77.2-205.13,186.28-.9,89,56,159,140.7,182l57.63,58.76,63.8-57.54c85.12-21.27,143.45-90.15,144.34-179.16C578.56,971.65,578.41,966.53,578.08,961.48Z" transform="translate(-172.02 -786.46)"/></svg>